<?xml version="1.0" encoding="UTF-8"?>
<svg xmlns="http://www.w3.org/2000/svg" xmlns:xlink="http://www.w3.org/1999/xlink" width="32px" height="32px" viewBox="0 0 32 32" version="1.1">
<g id="surface1">
<path style="fill-rule:nonzero;fill:#cc3300;fill-opacity:1;stroke-width:1;stroke-linecap:butt;stroke-linejoin:miter;stroke:rgb(93.72549%,81.568627%,4.313725%);stroke-opacity:1;stroke-miterlimit:4;" d="M 502.348621 788.149231 L 455.309119 788.149231 C 422.167651 788.149231 395.321875 815.113794 395.321875 848.255261 L 395.321875 913.112756 C 395.321875 946.254224 422.167651 973.1 455.309119 973.1 L 502.348621 973.1 C 535.371301 973.1 562.335864 946.254224 562.335864 913.112756 L 562.335864 848.255261 C 562.335864 814.995007 535.371301 788.149231 502.348621 788.149231 Z M 502.348621 788.149231 " transform="matrix(0.0328846,0,0,0.0328846,0,0)"/>
<path style="fill-rule:nonzero;fill:#cc3300;fill-opacity:1;stroke-width:1;stroke-linecap:butt;stroke-linejoin:miter;stroke:rgb(93.72549%,81.568627%,4.313725%);stroke-opacity:1;stroke-miterlimit:4;" d="M 170.933948 285.80061 L 257.648181 296.610193 C 285.087891 300.055005 311.220947 284.256384 321.080237 258.242114 C 333.552832 225.575793 351.014465 199.799097 373.34635 181.030811 C 404.943591 154.422607 444.143176 140.999719 491.182678 140.999719 C 539.885193 140.999719 578.728418 153.828674 607.47478 179.249011 C 636.339929 204.906921 650.594324 235.55387 650.594324 271.427429 C 650.594324 297.204126 642.516833 320.842664 626.243066 342.224255 C 615.789844 355.76593 583.479883 384.393506 529.550757 428.106982 C 475.621631 471.820459 439.748071 511.257617 421.692505 546.180884 C 403.280579 582.054443 396.866101 621.729175 395.321875 661.522693 C 393.896436 695.614453 421.098572 724.004456 455.309119 724.004456 L 504.249207 724.004456 C 535.490088 724.004456 561.266785 700.128345 564.117664 669.125037 C 566.137036 646.793152 569.819421 629.925452 575.402393 618.403149 C 584.786536 598.68457 609.137793 572.6703 648.099805 540.360339 C 723.648096 477.75979 772.825757 428.344556 795.870361 391.99585 C 818.914966 355.647144 830.437268 317.160278 830.437268 276.535254 C 830.437268 203.006335 799.196387 138.5052 736.477051 83.150635 C 673.876501 27.677283 589.538 0 483.461548 0 C 382.730493 0 301.361658 27.320923 239.355042 81.962769 C 186.613782 128.645911 154.541394 183.762903 143.137878 247.551318 C 139.693066 266.082031 152.403235 283.543665 170.933948 285.80061 Z M 170.933948 285.80061 " transform="matrix(0.0328846,0,0,0.0328846,0,0)"/>
</g>
</svg>