<?xml version="1.0" encoding="UTF-8"?>
<svg xmlns="http://www.w3.org/2000/svg" xmlns:xlink="http://www.w3.org/1999/xlink" width="32px" height="32px" viewBox="0 0 32 32" version="1.1">
<g id="surface1">
<path style=" stroke:none;fill-rule:nonzero;fill:#e67722;fill-opacity:1;" d="M 25.566406 12.703125 C 25.375 14.816406 24.511719 16.769531 23.199219 18.335938 C 22.910156 18.65625 22.398438 18.464844 22.367188 18.046875 C 22.144531 12.640625 20.414062 7.742188 17.664062 4 C 17.472656 3.742188 17.054688 3.871094 17.023438 4.191406 C 16.894531 7.585938 16.097656 10.785156 14.785156 13.726562 C 14.59375 14.144531 13.953125 14.078125 13.886719 13.632812 C 13.566406 11.710938 12.894531 9.824219 11.808594 8.257812 C 11.617188 8 11.230469 8.097656 11.167969 8.414062 C 10.976562 9.726562 10.367188 10.878906 9.472656 11.777344 L 6.273438 14.976562 C 4.351562 16.894531 3.167969 19.519531 3.167969 22.433594 C 3.167969 23.007812 3.199219 23.550781 3.296875 24.097656 C 3.679688 26.816406 5.984375 28.832031 8.734375 28.832031 L 9.984375 28.832031 C 10.335938 28.832031 10.558594 28.480469 10.398438 28.191406 C 9.566406 26.367188 9.121094 24.449219 9.054688 22.496094 C 9.054688 22.273438 9.3125 22.175781 9.441406 22.304688 C 10.527344 23.328125 11.777344 24.160156 13.152344 24.832031 C 13.40625 24.960938 13.726562 24.800781 13.792969 24.542969 C 14.464844 22.304688 15.617188 20.289062 17.152344 18.625 C 17.3125 18.464844 17.566406 18.558594 17.566406 18.785156 C 17.664062 21.214844 18.335938 23.617188 19.617188 25.792969 C 19.742188 26.015625 20.03125 26.078125 20.257812 25.953125 C 21.246094 25.375 22.175781 24.703125 23.007812 23.9375 C 23.167969 23.777344 23.425781 23.902344 23.425781 24.128906 C 23.359375 25.535156 23.105469 26.910156 22.65625 28.257812 C 22.59375 28.480469 22.816406 28.800781 23.136719 28.800781 C 25.792969 28.800781 28.0625 26.910156 28.542969 24.289062 C 29.28125 20.257812 28.480469 15.871094 26.207031 12.542969 C 26.015625 12.257812 25.601562 12.382812 25.566406 12.703125 Z M 25.566406 12.703125 "/>
</g>
</svg>
